<?xml version="1.0" standalone="no"?>
<svg xmlns:xlink="http://www.w3.org/1999/xlink" id="wave" style="transform:rotate(180deg); transition: 0.3s" viewBox="0 0 1440 320" version="1.1" xmlns="http://www.w3.org/2000/svg"><defs><linearGradient id="sw-gradient-0" x1="0" x2="0" y1="1" y2="0"><stop stop-color="rgba(241, 163, 179, 1)" offset="0%"/><stop stop-color="rgba(254, 206, 210, 1)" offset="100%"/></linearGradient></defs><path style="transform:translate(0, 0px); opacity:1" fill="url(#sw-gradient-0)" d="M0,64L24,96C48,128,96,192,144,197.3C192,203,240,149,288,122.7C336,96,384,96,432,101.3C480,107,528,117,576,117.3C624,117,672,107,720,96C768,85,816,75,864,58.7C912,43,960,21,1008,42.7C1056,64,1104,128,1152,133.3C1200,139,1248,85,1296,96C1344,107,1392,181,1440,197.3C1488,213,1536,171,1584,144C1632,117,1680,107,1728,112C1776,117,1824,139,1872,128C1920,117,1968,75,2016,48C2064,21,2112,11,2160,16C2208,21,2256,43,2304,80C2352,117,2400,171,2448,208C2496,245,2544,267,2592,272C2640,277,2688,267,2736,234.7C2784,203,2832,149,2880,149.3C2928,149,2976,203,3024,192C3072,181,3120,107,3168,96C3216,85,3264,139,3312,181.3C3360,224,3408,256,3432,272L3456,288L3456,320L3432,320C3408,320,3360,320,3312,320C3264,320,3216,320,3168,320C3120,320,3072,320,3024,320C2976,320,2928,320,2880,320C2832,320,2784,320,2736,320C2688,320,2640,320,2592,320C2544,320,2496,320,2448,320C2400,320,2352,320,2304,320C2256,320,2208,320,2160,320C2112,320,2064,320,2016,320C1968,320,1920,320,1872,320C1824,320,1776,320,1728,320C1680,320,1632,320,1584,320C1536,320,1488,320,1440,320C1392,320,1344,320,1296,320C1248,320,1200,320,1152,320C1104,320,1056,320,1008,320C960,320,912,320,864,320C816,320,768,320,720,320C672,320,624,320,576,320C528,320,480,320,432,320C384,320,336,320,288,320C240,320,192,320,144,320C96,320,48,320,24,320L0,320Z"/></svg>